<?xml version="1.0" standalone="no"?><!DOCTYPE svg PUBLIC "-//W3C//DTD SVG 1.1//EN" "http://www.w3.org/Graphics/SVG/1.1/DTD/svg11.dtd"><svg t="1697203244370" class="icon" viewBox="0 0 1024 1024" version="1.1" xmlns="http://www.w3.org/2000/svg" p-id="6934" xmlns:xlink="http://www.w3.org/1999/xlink" width="200" height="200"><path d="M569.869976 309.608148 572.269319 305.0481 573.655732 300.085278C581.922733 270.490102 588.744925 242.487596 596.071645 209.307487 595.070616 213.840598 607.938283 154.345996 610.982746 141.622644 620.840545 100.424023 621.940099 89.945946 633.3696 87.178421 661.045276 76.108108 709.15584 202.410549 640.443088 355.186086L636.516324 363.916662C623.987546 391.772983 638.504545 417.691094 668.637405 421.765358L678.124074 423.048048C806.263144 440.373732 898.552528 476.43729 902.239204 510.493461 906.029111 545.502986 899.049029 566.825248 885.470097 580.681406 876.989717 589.334874 866.51904 594.403774 858.276947 596.352623L842.104112 600.17664C834.701561 601.92697 827.37152 609.350839 825.724264 616.793666L822.133206 633.019739C806.57837 703.302501 765.820541 834.123758 743.98803 892.59481 737.232121 910.688165 742.250413 897.109593 742.250413 897.109593 735.741232 910.94119 718.207723 923.617429 703.015991 925.193154 703.015991 925.193154 704.258076 925.509921 689.596056 926.186103 554.172056 932.431534 340.614642 885.019326 340.616856 875.911698 340.664874 685.929253 341.114603 542.006365 341.114603 542.006365 341.114603 542.006365 521.742668 401.071384 569.869976 309.608148L569.869976 309.608148 569.869976 309.608148ZM243.19571 562.782305C243.587183 566.712388 243.998582 569.84586 244.326954 571.950555L243.74784 564.483306C243.74784 687.163605 243.74784 701.001443 243.74784 908.583125L243.74784 913.036298C243.74784 928.264729 255.057366 945.421953 269.120069 951.405538L273.21773 953.149068C411.382729 1011.93734 602.088476 1026.87713 733.839914 1014.244904 748.370612 1012.851706 745.842162 1012.760429 745.842162 1012.760429 776.055559 1008.161562 810.660117 981.759327 822.884048 953.877409 822.884048 953.877409 827.405838 944.735606 834.842292 925.208479 880.679438 804.847605 903.344848 683.6055 911.956549 679.405348 926.649565 672.239294 941.231879 662.174178 954.652368 648.479784 988.967853 613.463808 1005.387139 563.30669 998.541423 500.068381 991.994188 439.588481 944.232476 398.459995 869.850361 369.393966 819.604342 349.759514 745.730629 354.727648 752.324912 335.141452 778.191983 258.310789 784.740739 187.306369 771.480355 129.209989 753.570179 50.742512 699.192182 0 626.059901 0 592.242716 0 564.787754 14.593506 546.161332 41.872461 533.286054 60.728639 525.326115 83.352959 516.777098 119.081385 513.443563 133.012784 500.239498 194.063118 501.485319 188.421112 494.512156 220.00027 488.090707 246.357831 480.362275 274.024824L484.14803 264.501956C444.349717 340.136433 367.553315 402.783088 270.616493 473.545339 249.71859 488.800436 243.58317 509.262234 242.343715 535.230939 241.902979 544.464549 242.294314 553.733957 243.19571 562.782305L243.19571 562.782305ZM20.756757 560.532787C20.756757 518.444015 54.916982 484.324324 96.864865 484.324324 138.898266 484.324324 172.972973 518.38107 172.972973 560.532787L172.972973 892.440186C172.972973 934.528958 138.812748 968.648649 96.864865 968.648649 54.831464 968.648649 20.756757 934.591903 20.756757 892.440186L20.756757 560.532787 20.756757 560.532787Z" fill="#1296db" p-id="6935"></path></svg>